<svg width="69" height="55" viewBox="0 0 69 55" fill="none" xmlns="http://www.w3.org/2000/svg">
<path d="M28.2101 45V10.0909H41.9828C44.6192 10.0909 46.8692 10.5625 48.7328 11.5057C50.6078 12.4375 52.034 13.7614 53.0113 15.4773C53.9999 17.1818 54.4942 19.1875 54.4942 21.4943C54.4942 23.8125 53.9942 25.8068 52.9942 27.4773C51.9942 29.1364 50.5453 30.4091 48.6476 31.2955C46.7613 32.1818 44.4772 32.625 41.7953 32.625H32.5738V26.6932H40.6022C42.0113 26.6932 43.1817 26.5 44.1135 26.1136C45.0453 25.7273 45.7385 25.1477 46.1931 24.375C46.659 23.6023 46.8919 22.642 46.8919 21.4943C46.8919 20.3352 46.659 19.358 46.1931 18.5625C45.7385 17.767 45.0397 17.1648 44.0965 16.7557C43.1647 16.3352 41.9885 16.125 40.5681 16.125H35.5908V45H28.2101ZM47.0624 29.1136L55.7385 45H47.5908L39.1022 29.1136H47.0624Z" fill="white"/>
<path d="M31.8707 0.811436L32.1854 47.3558L0.822981 47.6335L0.768119 39.5201L22.29 39.3295L22.215 28.2388L2.3067 28.4151L2.25184 20.3017L22.1601 20.1254L22.085 9.01201L0.472213 9.20337L0.417351 1.08992L31.8707 0.811436Z" fill="white"/>
</svg>
